<svg width="24" height="20" viewBox="0 0 24 20" fill="none" xmlns="http://www.w3.org/2000/svg">
<g id="Group 13">
<path id="Rectangle 27 (Stroke)" fill-rule="evenodd" clip-rule="evenodd" d="M6.85718 0.833333C6.85718 0.373096 7.24093 0 7.71432 0H16.2857C16.7591 0 17.1429 0.373096 17.1429 0.833333V4.16667C17.1429 4.6269 16.7591 5 16.2857 5H7.71432C7.24093 5 6.85718 4.6269 6.85718 4.16667V0.833333ZM8.57146 1.66667V3.33333H15.4286V1.66667H8.57146Z" fill="#191D23"/>
<path id="Rectangle 25 (Stroke)" fill-rule="evenodd" clip-rule="evenodd" d="M0 4.16666C0 3.70642 0.383756 3.33333 0.857143 3.33333H23.1429C23.6162 3.33333 24 3.70642 24 4.16666V19.1667C24 19.6269 23.6162 20 23.1429 20H0.857143C0.383756 20 0 19.6269 0 19.1667V4.16666ZM1.71429 4.99999V18.3333H22.2857V4.99999H1.71429Z" fill="#191D23"/>
<path id="Vector 26 (Stroke)" fill-rule="evenodd" clip-rule="evenodd" d="M0 4.16666C0 3.70642 0.383756 3.33333 0.857143 3.33333H23.1429C23.6162 3.33333 24 3.70642 24 4.16666V9.99999C24 10.3972 23.7116 10.7392 23.311 10.8171L14.7395 12.4838C14.2753 12.5741 13.8238 12.2814 13.7309 11.8301C13.6381 11.3788 13.9391 10.9398 14.4033 10.8495L22.2857 9.31683V4.99999H1.71429V9.31682L9.59667 10.8495C10.0609 10.9398 10.3619 11.3788 10.2691 11.8301C10.1762 12.2814 9.72467 12.5741 9.26047 12.4838L0.689043 10.8171C0.288394 10.7392 0 10.3972 0 9.99999V4.16666Z" fill="#191D23"/>
<path id="Rectangle 26 (Stroke)" fill-rule="evenodd" clip-rule="evenodd" d="M9.42847 10C9.42847 9.53977 9.81222 9.16667 10.2856 9.16667H13.7142C14.1876 9.16667 14.5713 9.53977 14.5713 10V13.3333C14.5713 13.7936 14.1876 14.1667 13.7142 14.1667H10.2856C9.81222 14.1667 9.42847 13.7936 9.42847 13.3333V10ZM11.1428 10.8333V12.5H12.857V10.8333H11.1428Z" fill="#191D23"/>
</g>
</svg>
