<svg width="15" height="19" viewBox="0 0 15 19" fill="none" xmlns="http://www.w3.org/2000/svg">
<g id="Group">
<g id="Group_2">
<path id="Vector" d="M7.31314 0C6.84114 0 6.35888 0.0400001 5.87662 0.14C3.04461 0.67 0.787223 2.9 0.253658 5.66C-0.238864 8.27 0.74618 10.67 2.53157 12.22C2.97279 12.6 3.20879 13.13 3.20879 13.69V16C3.20879 17.1 4.13227 18 5.26096 18H5.54827C5.9074 18.6 6.55383 19 7.31314 19C8.07244 19 8.72914 18.6 9.07801 18H9.36531C10.494 18 11.4175 17.1 11.4175 16V13.69C11.4175 13.14 11.6432 12.6 12.0742 12.23C13.562 10.95 14.4957 9.08 14.4957 7C14.4957 3.13 11.2841 0 7.31314 0ZM7.82618 11H6.80009V8.41L4.92235 6.59L5.65088 5.88L7.31314 7.5L8.9754 5.88L9.70392 6.59L7.82618 8.42V11V11ZM8.85227 16C8.84201 16 8.83175 15.99 8.82148 15.99V16H5.80479V15.99C5.79453 15.99 5.78427 16 5.77401 16C5.4867 16 5.26096 15.78 5.26096 15.5C5.26096 15.22 5.4867 15 5.77401 15C5.78427 15 5.79453 15.01 5.80479 15.01V15H8.82148V15.01C8.83175 15.01 8.84201 15 8.85227 15C9.13957 15 9.36531 15.22 9.36531 15.5C9.36531 15.78 9.13957 16 8.85227 16ZM8.85227 14H5.77401C5.4867 14 5.26096 13.78 5.26096 13.5C5.26096 13.22 5.4867 13 5.77401 13H8.85227C9.13957 13 9.36531 13.22 9.36531 13.5C9.36531 13.78 9.13957 14 8.85227 14Z" fill="black" fill-opacity="0.7"/>
</g>
</g>
</svg>
