<svg width="20" height="20" viewBox="0 0 20 20" fill="none" xmlns="http://www.w3.org/2000/svg">
<g id="octicon:people-16">
<path id="Vector" d="M2.49991 6.875C2.49982 6.14984 2.67999 5.43603 3.0242 4.79777C3.36841 4.15952 3.86588 3.61683 4.47185 3.21852C5.07783 2.82021 5.77331 2.57877 6.49574 2.51593C7.21817 2.45308 7.94489 2.57079 8.61055 2.85847C9.2762 3.14615 9.85991 3.59478 10.3092 4.16401C10.7584 4.73324 11.0591 5.40522 11.1843 6.1195C11.3094 6.83378 11.255 7.56796 11.026 8.25602C10.7971 8.94407 10.4006 9.56441 9.87241 10.0613C10.8684 10.5446 11.7332 11.2609 12.3934 12.1496C13.0536 13.0383 13.4898 14.0731 13.6649 15.1663C13.6842 15.2879 13.6793 15.4121 13.6506 15.5319C13.6219 15.6517 13.5698 15.7646 13.4975 15.8642C13.4251 15.9639 13.3338 16.0483 13.2288 16.1127C13.1238 16.177 13.0072 16.2201 12.8855 16.2394C12.7639 16.2587 12.6397 16.2538 12.5199 16.2251C12.4001 16.1963 12.2872 16.1443 12.1876 16.0719C12.0879 15.9996 12.0035 15.9083 11.9391 15.8033C11.8748 15.6983 11.8317 15.5816 11.8124 15.46C11.6249 14.2854 11.0248 13.2161 10.1199 12.4441C9.21492 11.6722 8.0644 11.2481 6.87491 11.2481C5.68543 11.2481 4.53491 11.6722 3.62995 12.4441C2.725 13.2161 2.1249 14.2854 1.93741 15.46C1.91804 15.5816 1.8749 15.6983 1.81046 15.8032C1.74602 15.9082 1.66153 15.9994 1.56182 16.0718C1.46212 16.1441 1.34914 16.196 1.22935 16.2247C1.10956 16.2533 0.9853 16.2581 0.863663 16.2388C0.742026 16.2194 0.625395 16.1762 0.52043 16.1118C0.415465 16.0474 0.324221 15.9629 0.251907 15.8632C0.179593 15.7635 0.127627 15.6505 0.0989737 15.5307C0.0703208 15.4109 0.065543 15.2866 0.0849129 15.165C0.260331 14.0723 0.696632 13.0379 1.35683 12.1497C2.01702 11.2615 2.88165 10.5455 3.87741 10.0625C3.442 9.65366 3.0951 9.15984 2.85817 8.61158C2.62123 8.06332 2.4993 7.47227 2.49991 6.875ZM13.7499 5C14.4762 5.00051 15.1867 5.21183 15.7952 5.60831C16.4037 6.0048 16.884 6.56939 17.1778 7.23356C17.4717 7.89773 17.5664 8.63292 17.4505 9.34988C17.3346 10.0668 17.013 10.7347 16.5249 11.2725C17.2858 11.6502 17.9618 12.1788 18.5119 12.8261C19.0621 13.4733 19.4748 14.2257 19.7249 15.0375C19.7745 15.1951 19.7814 15.363 19.7451 15.5241C19.7088 15.6853 19.6305 15.834 19.5182 15.9551C19.4058 16.0762 19.2634 16.1654 19.1054 16.2137C18.9475 16.262 18.7795 16.2676 18.6187 16.23C18.4579 16.1926 18.3099 16.1135 18.1895 16.0007C18.069 15.8879 17.9803 15.7454 17.9324 15.5875C17.7084 14.8628 17.3001 14.2086 16.7476 13.6889C16.195 13.1691 15.517 12.8017 14.7799 12.6225C14.5752 12.5731 14.3931 12.4562 14.2629 12.2907C14.1328 12.1251 14.0621 11.9206 14.0624 11.71V11.27C14.0623 11.0955 14.1109 10.9244 14.2028 10.7759C14.2947 10.6275 14.4261 10.5077 14.5824 10.43C14.9614 10.2422 15.2657 9.93178 15.446 9.54919C15.6262 9.16659 15.6719 8.73428 15.5754 8.32248C15.479 7.91069 15.2462 7.54359 14.9148 7.28081C14.5834 7.01804 14.1729 6.87502 13.7499 6.875C13.5013 6.875 13.2628 6.77623 13.087 6.60041C12.9112 6.4246 12.8124 6.18614 12.8124 5.9375C12.8124 5.68886 12.9112 5.4504 13.087 5.27459C13.2628 5.09877 13.5013 5 13.7499 5ZM6.87491 4.375C6.54199 4.36747 6.21092 4.42653 5.90113 4.54872C5.59135 4.6709 5.3091 4.85374 5.07095 5.08651C4.8328 5.31927 4.64355 5.59727 4.51432 5.90418C4.38509 6.21109 4.31848 6.54073 4.31839 6.87374C4.31831 7.20675 4.38476 7.53642 4.51384 7.84339C4.64291 8.15037 4.83202 8.42846 5.07005 8.66135C5.30809 8.89423 5.59025 9.07721 5.89997 9.19955C6.20969 9.32189 6.54074 9.38111 6.87366 9.37375C7.52686 9.35931 8.14846 9.08972 8.60538 8.6227C9.0623 8.15568 9.31823 7.52835 9.31839 6.87499C9.31856 6.22163 9.06294 5.59416 8.60625 5.12692C8.14956 4.65967 7.52811 4.38977 6.87491 4.375Z" fill="black" fill-opacity="0.7"/>
</g>
</svg>
