<svg width="75" height="138" viewBox="0 0 75 138" fill="none" xmlns="http://www.w3.org/2000/svg">
<g id="freepik--Plant--inject-2">
<path id="Vector" d="M18.8 37.75C35.35 54 38.13 79 34.64 101C34.55 101.5 33.78 101.36 33.78 100.9C33.78 95.9 33.93 90.9 33.91 86.01C33.82 85.78 33.75 85.57 33.66 85.34C29.34 82.2 25.36 78.65 22.9 73.79C20.14 68.35 19.05 62.22 16.9 56.54C16.7 56 17.28 56.16 17.66 56.44C27.73 63.86 30.94 71.85 33.83 82.53C33.7671 76.9475 33.1812 71.3831 32.08 65.91C29.9 55.77 25.6 45.73 18.32 38.21C18.2898 38.1785 18.2661 38.1413 18.2502 38.1006C18.2344 38.06 18.2267 38.0166 18.2276 37.9729C18.2285 37.9293 18.2381 37.8862 18.2556 37.8463C18.2732 37.8063 18.2984 37.7702 18.33 37.74C18.3615 37.7098 18.3986 37.6861 18.4393 37.6702C18.48 37.6544 18.5234 37.6467 18.567 37.6477C18.6107 37.6486 18.6537 37.6581 18.6937 37.6756C18.7336 37.6932 18.7698 37.7185 18.8 37.75Z" fill="#263238"/>
<path id="Vector_2" d="M15.69 39.6399C12.84 39.7399 11.05 44.2899 8.82996 45.6399C8.59677 45.8283 8.32661 45.9656 8.03699 46.0428C7.74737 46.1201 7.44474 46.1357 7.14871 46.0886C6.85268 46.0414 6.56985 45.9326 6.31856 45.7692C6.06727 45.6058 5.85311 45.3914 5.68996 45.1399C3.48996 42.0699 6.50995 38.2899 9.34995 36.1399C7.34995 36.9699 5.63996 38.4399 3.44996 38.8499C3.17019 38.9436 2.87351 38.9758 2.58018 38.9442C2.28684 38.9127 2.00376 38.8183 1.75028 38.6673C1.49679 38.5164 1.27888 38.3125 1.11142 38.0696C0.943957 37.8267 0.830895 37.5505 0.779955 37.2599C-0.220045 33.0799 5.06995 31.2599 8.66995 31.1299C6.91995 29.9099 1.91996 26.6099 4.57996 24.9899C7.23996 23.3699 13.14 28.0799 15.06 29.6299C17.87 31.9199 21.23 35.3299 21.36 38.8999C21.52 43.0799 17.88 40.5199 15.69 39.6399Z" fill="#E58E1A"/>
<path id="Vector_3" opacity="0.1" d="M15.69 39.6399C12.84 39.7399 11.05 44.2899 8.82996 45.6399C8.59677 45.8283 8.32661 45.9656 8.03699 46.0428C7.74737 46.1201 7.44474 46.1357 7.14871 46.0886C6.85268 46.0414 6.56985 45.9326 6.31856 45.7692C6.06727 45.6058 5.85311 45.3914 5.68996 45.1399C3.48996 42.0699 6.50995 38.2899 9.34995 36.1399C7.34995 36.9699 5.63996 38.4399 3.44996 38.8499C3.17019 38.9436 2.87351 38.9758 2.58018 38.9442C2.28684 38.9127 2.00376 38.8183 1.75028 38.6673C1.49679 38.5164 1.27888 38.3125 1.11142 38.0696C0.943957 37.8267 0.830895 37.5505 0.779955 37.2599C-0.220045 33.0799 5.06995 31.2599 8.66995 31.1299C6.91995 29.9099 1.91996 26.6099 4.57996 24.9899C7.23996 23.3699 13.14 28.0799 15.06 29.6299C17.87 31.9199 21.23 35.3299 21.36 38.8999C21.52 43.0799 17.88 40.5199 15.69 39.6399Z" fill="black"/>
<path id="Vector_4" d="M16.51 40.34C12.87 38.69 5.87998 41.07 5.27998 39.69C4.07998 36.89 9.65998 34.96 12.68 34.59C9.89998 33.84 4.57998 32.64 4.73998 29.96C4.93998 26.69 12.91 29.5 16.94 32.59C22.02 36.49 21.94 40.25 21.14 41C20 42 17.11 40.62 16.51 40.34Z" fill="#E58E1A"/>
<path id="Vector_5" d="M56.4899 36.15C39.3299 51.71 35.5999 76.65 38.2499 98.73C38.3299 99.23 39.0999 99.12 39.1199 98.66C39.3099 93.66 39.3499 88.66 39.5499 83.77C39.6499 83.55 39.7299 83.34 39.8299 83.12C44.2699 80.12 48.3699 76.75 51.0199 71.98C54.0199 66.65 55.2999 60.57 57.6299 54.98C57.8499 54.44 57.2599 54.58 56.8699 54.84C46.5299 61.84 43.0199 69.74 39.7299 80.3C40.0001 74.7207 40.7969 69.1794 42.1099 63.75C44.6699 53.75 49.3499 43.84 56.9099 36.6C57.1899 36.33 56.7899 35.87 56.4899 36.15Z" fill="#263238"/>
<path id="Vector_6" d="M59.53 38.15C62.37 38.36 63.98 42.97 66.14 44.39C66.3652 44.5892 66.63 44.7384 66.917 44.8279C67.204 44.9173 67.5067 44.945 67.8052 44.9091C68.1037 44.8732 68.3912 44.7746 68.6489 44.6196C68.9065 44.4646 69.1284 44.2569 69.3 44.01C71.62 41.01 68.75 37.13 65.99 34.91C67.99 35.82 69.61 37.35 71.78 37.84C72.0562 37.9445 72.3518 37.988 72.6465 37.9676C72.9411 37.9473 73.2279 37.8635 73.4871 37.722C73.7464 37.5805 73.972 37.3846 74.1486 37.1478C74.3251 36.911 74.4484 36.6389 74.51 36.35C75.63 32.21 70.51 30.15 66.86 29.92C68.65 28.78 73.78 25.67 71.18 23.92C68.58 22.17 62.51 26.68 60.53 28.16C57.63 30.33 54.15 33.61 53.89 37.16C53.56 41.37 57.3 38.94 59.53 38.15Z" fill="#E58E1A"/>
<path id="Vector_7" opacity="0.1" d="M59.53 38.15C62.37 38.36 63.98 42.97 66.14 44.39C66.3652 44.5892 66.63 44.7384 66.917 44.8279C67.204 44.9173 67.5067 44.945 67.8052 44.9091C68.1037 44.8732 68.3912 44.7746 68.6489 44.6196C68.9065 44.4646 69.1284 44.2569 69.3 44.01C71.62 41.01 68.75 37.13 65.99 34.91C67.99 35.82 69.61 37.35 71.78 37.84C72.0562 37.9445 72.3518 37.988 72.6465 37.9676C72.9411 37.9473 73.2279 37.8635 73.4871 37.722C73.7464 37.5805 73.972 37.3846 74.1486 37.1478C74.3251 36.911 74.4484 36.6389 74.51 36.35C75.63 32.21 70.51 30.15 66.86 29.92C68.65 28.78 73.78 25.67 71.18 23.92C68.58 22.17 62.51 26.68 60.53 28.16C57.63 30.33 54.15 33.61 53.89 37.16C53.56 41.37 57.3 38.94 59.53 38.15Z" fill="black"/>
<path id="Vector_8" d="M58.6799 38.82C62.3799 37.31 69.2699 39.95 69.9199 38.6C71.2299 35.84 65.7199 33.71 62.7199 33.22C65.5299 32.58 70.8899 31.58 70.8299 28.9C70.7499 25.62 62.6899 28.13 58.5399 31.06C53.3199 34.76 53.2099 38.5199 54.0199 39.2999C55.1299 40.3799 58.0599 39.07 58.6799 38.82Z" fill="#E58E1A"/>
<path id="Vector_9" d="M39 77.25C37.8364 85.5742 36.0548 93.8003 33.67 101.86C33.6369 102.019 33.5419 102.159 33.4059 102.248C33.2699 102.337 33.1041 102.368 32.945 102.335C32.7859 102.302 32.6464 102.207 32.5574 102.071C32.4683 101.935 32.4369 101.769 32.47 101.61C33.6 94.03 35.65 86.61 36.78 79C38.0089 71.3284 38.4512 63.5514 38.1 55.79C37.37 43.02 33.9 29.42 25.57 19.43C25.38 19.19 25.77 18.85 25.96 19.07C42.65 38.54 39.96 62.4 39.96 64.54C42.33 56.48 44.76 47.25 53.7 39.04C54.09 38.69 54.39 38.86 54.32 39.46C52.72 54.4 48.57 62.21 39.9 70.2C39.63 72.56 39.32 74.92 39 77.25Z" fill="#263238"/>
<path id="Vector_10" d="M25.36 21.66C22.36 20.33 18.22 24.15 15.25 24.42C13.68 24.56 12.51 23.94 12.25 22.32C11.51 18.03 16.55 15.62 20.56 14.85C18.03 14.69 15.56 15.37 13.07 14.7C12.7297 14.6595 12.4022 14.5456 12.1101 14.3663C11.818 14.1869 11.5683 13.9464 11.3781 13.6612C11.188 13.376 11.062 13.053 11.0088 12.7144C10.9556 12.3758 10.9765 12.0297 11.07 11.7C12.17 6.87997 18.56 7.58996 22.34 9.30996C21.14 7.16996 17.61 1.22996 21.18 0.879963C24.75 0.529963 28.51 8.39997 29.72 10.98C31.49 14.76 33.25 19.98 31.59 23.76C29.69 28.17 27.2 23.67 25.36 21.66Z" fill="#E58E1A"/>
<path id="Vector_11" opacity="0.1" d="M25.36 21.66C22.36 20.33 18.22 24.15 15.25 24.42C13.68 24.56 12.51 23.94 12.25 22.32C11.51 18.03 16.55 15.62 20.56 14.85C18.03 14.69 15.56 15.37 13.07 14.7C12.7297 14.6595 12.4022 14.5456 12.1101 14.3663C11.818 14.1869 11.5683 13.9464 11.3781 13.6612C11.188 13.376 11.062 13.053 11.0088 12.7144C10.9556 12.3758 10.9765 12.0297 11.07 11.7C12.17 6.87997 18.56 7.58996 22.34 9.30996C21.14 7.16996 17.61 1.22996 21.18 0.879963C24.75 0.529963 28.51 8.39997 29.72 10.98C31.49 14.76 33.25 19.98 31.59 23.76C29.69 28.17 27.2 23.67 25.36 21.66Z" fill="black"/>
<path id="Vector_12" d="M25.87 22.8099C22.87 19.2599 14.47 18.21 14.54 16.48C14.7 12.96 21.47 13.78 24.79 14.91C22.29 12.73 17.37 8.80993 18.88 6.10993C20.74 2.81993 27.59 9.74996 30.21 14.98C33.52 21.58 31.6 25.46 30.35 25.82C28.63 26.31 26.35 23.3899 25.87 22.8099Z" fill="#E58E1A"/>
<path id="Vector_13" d="M49.93 81.7499L57.29 138H12.49C13.41 133 21.75 81.6799 21.75 81.6799L49.93 81.7499Z" fill="#E58E1A"/>
</g>
</svg>
