<svg width="170" height="171" viewBox="0 0 170 171" fill="none" xmlns="http://www.w3.org/2000/svg">
<g id="freepik--Fingerprint--inject-2">
<path id="Vector" d="M131 54.92C130.034 51.5672 128.539 48.3904 126.57 45.51C124.525 42.6612 122.145 40.0691 119.48 37.79C108.85 28.54 94.2 24.96 80.35 25.91C74.0227 26.2924 67.8196 27.8347 62.05 30.46C59.2385 31.7712 56.6314 33.4822 54.31 35.54C52.16 37.45 49.74 39.8 48.74 42.54C48.708 42.6386 48.7088 42.7449 48.7422 42.843C48.7757 42.941 48.84 43.0257 48.9255 43.0842C49.011 43.1427 49.1132 43.172 49.2168 43.1676C49.3203 43.1633 49.4196 43.1255 49.5 43.06C50.77 42.06 51.84 40.8 53.05 39.7C54.2706 38.6093 55.5672 37.6068 56.93 36.7C59.607 34.9383 62.4547 33.4508 65.43 32.26C77.32 27.46 91.43 27.58 103.43 31.92C109.249 34.0444 114.621 37.2356 119.27 41.33C121.46 43.2657 123.469 45.398 125.27 47.7C127.201 50.0376 128.981 52.496 130.6 55.06C130.78 55.2 131.09 55.14 131 54.92Z" fill="#263238"/>
<path id="Vector_2" d="M122.23 36C121.028 34.0819 119.518 32.3755 117.76 30.95C115.919 29.5973 113.973 28.3935 111.94 27.35C104.496 23.3342 96.3471 20.7943 87.94 19.87C83.8838 19.4233 79.7824 19.6259 75.79 20.47C73.8979 20.8933 72.0316 21.4242 70.2 22.06C68.3347 22.6109 66.5619 23.4366 64.94 24.51C64.9019 24.546 64.8761 24.5932 64.8663 24.6447C64.8564 24.6962 64.863 24.7495 64.8851 24.797C64.9073 24.8446 64.9438 24.884 64.9895 24.9096C65.0352 24.9353 65.0879 24.9459 65.14 24.94C67.28 24.5 69.33 23.71 71.48 23.3C73.63 22.89 75.64 22.81 77.74 22.61C102.31 20.33 120.08 35.52 121.82 36.43C121.879 36.4721 121.951 36.4916 122.023 36.4848C122.095 36.478 122.162 36.4455 122.212 36.3932C122.262 36.3408 122.291 36.2722 122.294 36.2C122.298 36.1277 122.275 36.0567 122.23 36Z" fill="#263238"/>
<path id="Vector_3" d="M37.2199 113.77C42.2199 117 48.1399 114.64 52.0599 110.85C56.1399 106.91 58.9199 101.75 61.0599 96.56C63.0599 91.82 64.4699 86.87 66.0599 81.98C67.6499 77.09 69.0599 71.98 71.5799 67.51C73.9381 63.2349 77.893 60.0674 82.5799 58.7C87.6582 57.3334 93.0571 57.819 97.8099 60.07C100.327 61.1804 102.611 62.7583 104.54 64.72C106.306 66.6394 107.682 68.8845 108.59 71.33C110.7 76.61 111.76 82.23 113.04 87.74C114.09 92.3 116.27 96.41 120.54 98.66C124.18 100.58 128.66 101.16 132.36 99.09C132.415 99.0636 132.459 99.0178 132.482 98.9614C132.506 98.905 132.508 98.8419 132.489 98.784C132.469 98.726 132.429 98.6774 132.375 98.6472C132.322 98.6169 132.26 98.6073 132.2 98.62C129.87 99.0735 127.466 98.9828 125.176 98.3549C122.887 97.727 120.773 96.5788 119 95C117.172 93.1502 115.907 90.8201 115.35 88.28C114.55 85.28 113.95 82.19 113.13 79.17C111.77 74.17 110.42 68.7 107.13 64.54C103.779 60.5102 99.262 57.6176 94.1999 56.26C89.3268 54.842 84.1226 55.0669 79.3899 56.9C74.6845 58.846 70.8464 62.4353 68.5899 67C63.8699 76 62.3499 86.26 58.7099 95.68C57.0349 100.357 54.5354 104.695 51.33 108.49C48 112.21 42.6499 114.97 37.6699 112.9C37.5551 112.845 37.4235 112.837 37.3029 112.878C37.1823 112.918 37.0822 113.004 37.0238 113.117C36.9653 113.23 36.9531 113.361 36.9897 113.483C37.0263 113.605 37.1089 113.708 37.2199 113.77Z" fill="#263238"/>
<path id="Vector_4" d="M36.1299 98C38.4299 98.31 40.54 96.58 41.61 94.68C43.0645 91.946 44.1795 89.0445 44.93 86.04C46.5142 79.8245 48.5189 73.7238 50.93 67.78C54.93 58.47 61.1599 49.49 70.1299 44.33C74.5746 41.7418 79.5313 40.1564 84.6529 39.6848C89.7746 39.2132 94.9374 39.8669 99.78 41.6C104.391 43.2816 108.605 45.896 112.16 49.28C115.818 52.8791 118.763 57.1372 120.84 61.83C122.915 66.6943 124.62 71.7086 125.94 76.83C126.53 78.88 127.36 81.37 129.34 82.48C130.078 82.9427 130.957 83.1283 131.82 83.0038C132.682 82.8792 133.473 82.4527 134.05 81.8C134.16 81.67 133.98 81.53 133.86 81.61C133.299 81.9825 132.629 82.1554 131.958 82.101C131.287 82.0466 130.654 81.768 130.16 81.31C129.091 80.4028 128.382 79.1439 128.16 77.76C127.49 75 126.95 72.22 126.16 69.47C124.682 63.8826 122.352 58.5566 119.25 53.68C116.456 49.4962 112.862 45.9063 108.675 43.117C104.488 40.3278 99.791 38.3941 94.8538 37.4275C89.9166 36.4609 84.837 36.4804 79.9073 37.4848C74.9777 38.4892 70.2954 40.4587 66.1299 43.28C57.4899 49.14 51.6399 58.17 47.7699 67.7C45.7698 72.9233 44.0998 78.2672 42.7699 83.7C42.11 86.4471 41.2954 89.1548 40.33 91.81C39.8781 92.9735 39.3434 94.103 38.73 95.19C38.509 95.6896 38.1592 96.1214 37.7164 96.4412C37.2736 96.7611 36.7537 96.9573 36.21 97.01C36.0787 96.9994 35.9486 97.0414 35.8482 97.1267C35.7479 97.212 35.6856 97.3337 35.675 97.465C35.6643 97.5963 35.7063 97.7264 35.7916 97.8267C35.877 97.9271 35.9987 97.9894 36.1299 98Z" fill="#263238"/>
<path id="Vector_5" d="M38.92 118.09C38.9052 118.201 38.9331 118.313 38.9981 118.404C39.0631 118.495 39.1604 118.558 39.27 118.58C40.0818 118.773 40.9078 118.9 41.74 118.96C42.1131 118.98 42.487 118.98 42.86 118.96C47.27 118.74 51.8601 116.24 56.4801 111.53C60.3855 107.545 63.6025 102.939 66 97.9C67.8906 93.5826 69.3445 89.0869 70.34 84.48C70.66 83.19 70.99 81.89 71.34 80.61C72.43 76.51 74.4101 70.61 78.8801 66.89C80.3887 65.633 82.1602 64.7306 84.064 64.2495C85.9678 63.7683 87.9554 63.7206 89.8801 64.11C92.8682 64.716 95.6998 65.9297 98.1993 67.6757C100.699 69.4218 102.813 71.6629 104.41 74.26C106.915 78.4353 107.818 83.3787 106.95 88.17C105.887 93.3485 103.373 98.1177 99.7 101.92C95.8756 105.856 91.343 109.035 86.34 111.29C84.22 112.29 81.41 113.62 78.53 114.68L76.8801 115.29C74.7801 116.06 72.6201 116.84 70.5501 117.75C70.4159 117.815 70.3097 117.926 70.2507 118.063C70.1917 118.2 70.184 118.353 70.2289 118.495C70.2738 118.637 70.3684 118.758 70.4953 118.836C70.6222 118.914 70.773 118.944 70.92 118.92C72.37 118.61 73.8001 118.21 75.1301 117.82C84.7801 115.05 96.8001 110.57 104.13 100.46C107.443 96.0789 109.366 90.8051 109.65 85.32C109.781 80.2876 108.217 75.3572 105.21 71.32C101.426 66.1192 95.76 62.6025 89.42 61.52C87.3337 61.1766 85.1989 61.2657 83.1484 61.7818C81.0979 62.2979 79.1753 63.2299 77.5 64.52C73.8 67.39 71.0801 71.96 69.1901 78.52C68.6701 80.3 68.19 82.12 67.76 83.88C66.8061 88.1392 65.4672 92.303 63.76 96.32C61.3445 101.558 58.0083 106.32 53.9101 110.38C50.5601 113.68 45.34 117.61 39.47 117.62C39.3353 117.612 39.2026 117.656 39.0999 117.744C38.9973 117.831 38.9328 117.956 38.92 118.09Z" fill="#263238"/>
<path id="Vector_6" d="M37 103.77C38.2479 104.051 39.5444 104.035 40.7848 103.722C42.0252 103.41 43.1746 102.809 44.14 101.97C46.33 100.22 47.46 97.31 48.36 94.73C50.45 88.73 52.07 82.53 54.15 76.5C57.38 67.1 62.15 57.5 70.62 51.84C74.429 49.3364 78.7289 47.6755 83.2319 46.9684C87.7349 46.2613 92.3369 46.5244 96.73 47.74C101.593 49.1162 106.001 51.7638 109.5 55.41C112.709 58.9676 115.253 63.0728 117.01 67.53C117.94 69.77 118.74 72.05 119.45 74.37C120.099 76.8246 120.874 79.2444 121.77 81.62C123.41 85.56 127.54 90.29 132.3 88.34C132.377 88.3027 132.44 88.2409 132.479 88.1644C132.517 88.0878 132.529 88.0006 132.513 87.9164C132.498 87.8321 132.454 87.7554 132.39 87.6982C132.326 87.6411 132.245 87.6065 132.16 87.6C130.834 87.4766 129.551 87.0666 128.399 86.3984C127.248 85.7302 126.255 84.8197 125.49 83.73C123.8 81.35 123.15 78.41 122.38 75.64C121.033 70.466 119.044 65.4807 116.46 60.8C114.157 56.659 111.021 53.0397 107.25 50.17C103.168 47.2194 98.4585 45.2547 93.49 44.43C88.9431 43.6877 84.2936 43.8618 79.8149 44.9419C75.3362 46.0221 71.1186 47.9866 67.41 50.72C59.18 56.87 54.49 66.51 51.28 76.02C49.47 81.36 48.07 86.81 46.41 92.19C45.15 96.29 42.92 103.19 37.32 102.28C37.1354 102.268 36.9525 102.322 36.8047 102.433C36.657 102.545 36.5543 102.706 36.5155 102.887C36.4766 103.067 36.5042 103.256 36.5932 103.419C36.6821 103.581 36.8265 103.705 37 103.77Z" fill="#263238"/>
<path id="Vector_7" d="M36.59 107.69C37.2479 108.431 38.0423 109.039 38.93 109.48C40.77 110.4 43.46 110.1 45.3 109.36C47.5612 108.325 49.4598 106.636 50.75 104.51C52.1603 102.238 53.3523 99.837 54.31 97.34C55.46 94.57 56.46 91.72 57.44 88.88C59.44 83.17 61.23 77.41 63.44 71.77C65.36 66.77 67.75 62 71.77 58.36C75.3491 55.0761 79.7925 52.8841 84.5764 52.0425C89.3603 51.2009 94.2851 51.7448 98.77 53.61C103.371 55.5425 107.283 58.8143 110 63C113 67.57 114.36 72.9 115.68 78.11C116.86 82.75 117.81 87.76 120.78 91.65C123.25 94.9 128.51 97.47 131.98 94.09C132.017 94.0581 132.04 94.0139 132.047 93.9658C132.053 93.9177 132.042 93.8689 132.015 93.8285C131.988 93.7881 131.947 93.7589 131.9 93.7463C131.853 93.7337 131.804 93.7386 131.76 93.76C129.28 94.99 126.37 94.15 124.3 92.47C122.394 90.7999 120.965 88.6534 120.16 86.25C118.11 80.94 117.3 75.25 115.42 69.84C113.881 65.0441 111.197 60.6954 107.6 57.17C104.146 53.8707 99.9369 51.4673 95.34 50.17C90.675 48.9606 85.7764 48.9789 81.1205 50.223C76.4647 51.4671 72.2099 53.8948 68.77 57.27C64.96 61.1 62.57 65.93 60.64 70.92C58.54 76.39 56.84 82.01 54.94 87.56C53.94 90.4 52.94 93.22 51.83 96.03C50.9859 98.4506 49.9319 100.793 48.68 103.03C47.5262 105.114 45.7205 106.761 43.54 107.72C42.5244 108.169 41.4074 108.34 40.3038 108.216C39.2002 108.091 38.1497 107.675 37.26 107.01C36.8 106.66 36.25 107.31 36.59 107.69Z" fill="#263238"/>
<path id="Vector_8" d="M133.16 78.83C133.235 77.5311 133.235 76.2289 133.16 74.93C132.12 64.2094 127.547 54.1383 120.16 46.3C113.318 38.8857 104.202 33.9601 94.2501 32.3C84.4716 30.8085 74.4708 32.3439 65.5901 36.7C56.7531 41.063 49.4786 48.0477 44.7601 56.7C39.9068 65.2293 37.7162 75.0156 38.4701 84.8C38.4701 85.01 38.8101 84.97 38.8201 84.8C39.4533 74.241 42.8801 64.0398 48.7501 55.24C53.9713 47.5608 61.3175 41.5698 69.8901 38C78.4442 34.4908 87.8716 33.7017 96.8901 35.74C106.179 38.0468 114.454 43.3416 120.44 50.81C123.601 54.7706 126.149 59.1831 128 63.9C129.829 68.7805 131.277 73.7955 132.33 78.9C132.48 79.28 133.13 79.28 133.16 78.83Z" fill="#263238"/>
<path id="Vector_9" d="M117.89 114.9C118.99 113.28 121.35 114.71 122.57 115.39C124.4 116.39 126.37 117.76 128.57 117.39C128.606 117.378 128.645 117.381 128.679 117.398C128.712 117.415 128.738 117.444 128.75 117.48C128.762 117.516 128.759 117.555 128.742 117.589C128.725 117.622 128.696 117.648 128.66 117.66C127.946 118.013 127.163 118.201 126.367 118.212C125.571 118.222 124.783 118.054 124.06 117.72C123.281 117.401 122.52 117.04 121.78 116.64C121.079 116.235 120.33 115.919 119.55 115.7C119.407 115.68 119.263 115.68 119.12 115.7C118.97 115.7 119.01 115.7 118.99 115.75C118.85 116.01 119.07 116.56 119.15 116.82C119.335 117.496 119.593 118.15 119.92 118.77C120.614 120.046 121.494 121.212 122.53 122.23C123.113 122.826 123.731 123.387 124.38 123.91C125.04 124.44 125.82 124.84 126.45 125.4C126.502 125.428 126.54 125.475 126.557 125.531C126.574 125.588 126.568 125.648 126.54 125.7C126.512 125.752 126.465 125.79 126.409 125.807C126.352 125.824 126.292 125.818 126.24 125.79C125.479 125.554 124.753 125.217 124.08 124.79C123.377 124.378 122.708 123.91 122.08 123.39C120.811 122.345 119.744 121.078 118.93 119.65C118.521 118.939 118.186 118.189 117.93 117.41C117.727 117.024 117.618 116.596 117.611 116.16C117.604 115.724 117.699 115.292 117.89 114.9Z" fill="#263238"/>
<path id="Vector_10" d="M121.24 118C122.433 118.547 123.547 119.253 124.55 120.1C124.997 120.473 125.457 120.823 125.93 121.15C126.16 121.31 126.41 121.46 126.65 121.6C126.896 121.726 127.15 121.836 127.41 121.93C127.459 121.945 127.503 121.975 127.534 122.017C127.565 122.058 127.581 122.108 127.581 122.16C127.581 122.212 127.565 122.262 127.534 122.303C127.503 122.345 127.459 122.375 127.41 122.39C126.22 122.68 124.97 121.9 124.07 121.22C122.935 120.396 121.924 119.413 121.07 118.3C120.93 118.2 121.05 118 121.24 118Z" fill="#263238"/>
<path id="Vector_11" d="M43.07 121.67C43.0652 121.693 43.0652 121.717 43.07 121.74C43.0769 121.821 43.1097 121.898 43.1638 121.96C43.2178 122.021 43.2901 122.063 43.3701 122.08C43.6648 122.156 43.9662 122.203 44.27 122.22C45.3271 122.237 46.3812 122.102 47.4001 121.82C48.8266 121.482 50.2141 120.996 51.54 120.37C54.1319 119.117 56.5298 117.497 58.6601 115.56C65.9101 109.22 71.01 100.19 73.82 88.7C74 87.94 74.1901 87.17 74.3701 86.41C75.3701 82.26 76.37 77.98 78.67 74.41C79.8794 72.5229 81.5259 70.9553 83.4701 69.84C85.4952 68.8239 87.7464 68.342 90.01 68.44C90.1266 68.4347 90.2382 68.3912 90.3274 68.316C90.4167 68.2409 90.4787 68.1384 90.5038 68.0244C90.5288 67.9105 90.5156 67.7914 90.4661 67.6858C90.4166 67.5801 90.3336 67.4937 90.23 67.44C87.64 66.17 84.4201 67.37 83.1601 67.94C80.9258 69.0008 78.9679 70.565 77.4401 72.51C74.4401 76.22 73.32 80.98 72.24 85.58L71.96 86.73C70.8063 91.9272 69.0232 96.9644 66.65 101.73C64.2103 106.407 60.9405 110.602 57 114.11C55.0926 115.861 52.9686 117.359 50.68 118.57C49.5047 119.16 48.2882 119.665 47.04 120.08C46.62 120.22 46.1901 120.33 45.7601 120.45C44.9149 120.648 44.0935 120.936 43.31 121.31C43.2411 121.343 43.1824 121.393 43.1401 121.457C43.0978 121.52 43.0736 121.594 43.07 121.67Z" fill="#263238"/>
<path id="Vector_12" d="M68.16 116C68.1542 116.077 68.1698 116.154 68.205 116.223C68.2403 116.292 68.2939 116.35 68.36 116.39C68.4184 116.432 68.4879 116.457 68.56 116.46C68.6328 116.463 68.7052 116.447 68.7701 116.414C68.835 116.381 68.8901 116.331 68.93 116.27C69.8066 115.188 70.9612 114.365 72.27 113.89C73.45 113.34 74.6799 112.89 75.8699 112.4L76.41 112.18C79.68 110.9 82.34 109.76 84.78 108.59C95.6 103.4 102.05 96.68 103.98 88.59C105.076 84.2757 104.534 79.7084 102.46 75.77C101.518 73.8954 100.196 72.238 98.5774 70.9035C96.9588 69.569 95.0796 68.5869 93.06 68.02C92.9406 67.989 92.814 68.0023 92.7037 68.0575C92.5934 68.1126 92.5068 68.2059 92.46 68.32C92.4124 68.4243 92.4055 68.5427 92.4407 68.6518C92.4758 68.761 92.5504 68.853 92.6499 68.91C96.5256 71.1548 99.5547 74.6127 101.27 78.75C103.46 84.55 102.4 94.03 92.1799 101.7C88.3585 104.399 84.242 106.653 79.91 108.42C77.75 109.37 75.31 110.42 72.97 111.69C72.0009 112.177 71.0773 112.749 70.21 113.4C69.4125 114.074 68.7361 114.879 68.21 115.78C68.1701 115.846 68.1526 115.923 68.16 116Z" fill="#263238"/>
<path id="Vector_13" d="M39.8701 123.7C41.3398 124.583 43.007 125.085 44.7201 125.16C47.8563 125.208 50.9532 124.457 53.7201 122.98C57.8359 120.804 61.5685 117.97 64.77 114.59C65.08 114.27 65.37 113.94 65.67 113.59L65.9401 113.3C66.0118 113.266 66.0763 113.218 66.13 113.16C68.66 110.64 72.1301 109.24 75.4601 107.88C76.6201 107.41 77.8301 106.88 78.9601 106.4C84.5501 103.8 88.3601 101.22 91.3001 98.02C94.2813 94.9308 96.1616 90.9453 96.65 86.68C97 82.98 96.13 77.82 92.56 75.42C88.99 73.02 84.4701 74.73 81.8201 77.62C78.7401 80.99 77.17 85.75 75.9 89.62L75.4601 90.97C74.3049 94.8374 72.8264 98.6006 71.0401 102.22C69.065 105.96 66.5925 109.414 63.6901 112.49C60.8031 115.549 57.5128 118.2 53.9101 120.37C49.1701 123.2 44.55 124.06 40.2 122.96H40.1201C40.0295 122.956 39.9401 122.98 39.8633 123.029C39.7866 123.077 39.7262 123.147 39.6901 123.23C39.6617 123.317 39.6641 123.411 39.6969 123.497C39.7296 123.582 39.7908 123.654 39.8701 123.7ZM70.17 108C70.89 107 71.5201 106 72.0801 105C74.1679 101.29 75.8445 97.3637 77.0801 93.29C77.2901 92.64 77.4901 91.99 77.7101 91.29C78.8601 87.65 80.0501 83.88 82.1601 80.7C83.1699 79.0017 84.6832 77.6596 86.4901 76.86C87.3134 76.5358 88.1961 76.3892 89.0801 76.43C90.1358 76.4697 91.1427 76.8846 91.92 77.6C94.92 80.4 95.11 85.53 93.92 89.37C92.565 93.2263 90.0892 96.59 86.81 99.03C83.1 101.98 78.71 103.95 74.81 105.69L74.4401 105.85C73.0501 106.58 71.56 107.25 70.17 108Z" fill="#263238"/>
<path id="Vector_14" d="M76.68 101.34C76.656 101.428 76.6584 101.522 76.6868 101.609C76.7152 101.696 76.7685 101.773 76.84 101.83C76.9135 101.891 77.0048 101.926 77.1 101.93C77.1636 101.934 77.2272 101.923 77.2861 101.899C77.345 101.875 77.3976 101.838 77.44 101.79C77.66 101.57 79.28 100.41 80.06 99.88C80.31 99.71 80.57 99.55 80.82 99.37C81.35 99.02 81.9 98.66 82.42 98.26C83.9793 97.0796 85.4437 95.779 86.8 94.37C89.42 91.62 90.65 88.87 90.43 86.18C90.4262 85.5162 90.237 84.8666 89.8836 84.3047C89.5302 83.7428 89.0267 83.2909 88.43 83C87.7039 82.7566 86.9193 82.7504 86.1894 82.9823C85.4596 83.2142 84.8224 83.6721 84.37 84.29C83.4603 85.5023 82.7513 86.8528 82.27 88.29C81.81 89.45 81.4 90.66 80.99 91.82L80.66 92.76C79.5352 95.5589 78.2222 98.2784 76.73 100.9C76.6825 100.962 76.6528 101.036 76.644 101.113C76.6352 101.191 76.6476 101.269 76.68 101.34ZM81.79 94.42C82.7337 91.9547 83.8429 89.5559 85.11 87.24L85.17 87.14C85.51 86.54 86.32 85.14 87.1 84.98H87.27C87.4346 84.9939 87.5912 85.0566 87.72 85.16C88.4 85.69 88.3 87.16 87.98 88.27C87.24 90.93 84.98 93.08 83.22 94.81L81.82 96.15C81.34 96.6 80.87 97.06 80.4 97.52C81 96.41 81.43 95.32 81.79 94.42Z" fill="#263238"/>
<path id="Vector_15" d="M83 146.46C81.2726 149.891 79.7239 153.409 78.36 157C78.3567 157.023 78.3608 157.047 78.372 157.068C78.3831 157.088 78.4005 157.105 78.4218 157.115C78.443 157.125 78.467 157.128 78.49 157.124C78.5131 157.119 78.5341 157.107 78.55 157.09C80.5 154.19 82.12 151.09 83.95 148.09C85.15 146.16 87.32 141.65 90.25 142.38C91.48 142.68 92.36 144.04 93.04 145.01C93.9315 146.351 94.8998 147.64 95.94 148.87C97.54 150.69 100.54 153.07 103.16 152.43C103.28 152.43 103.35 152.21 103.23 152.15C102.53 151.78 101.79 151.55 101.1 151.15C100.339 150.721 99.6342 150.2 99 149.6C97.7763 148.351 96.6962 146.969 95.78 145.48C94.28 143.16 92.53 140.1 89.27 140.48C86.25 140.83 84.19 144 83 146.46Z" fill="#263238"/>
<path id="Vector_16" d="M39.73 126.29C42.9 130.46 48.57 129.72 52.67 127.5C55.0327 126.127 57.2623 124.537 59.33 122.75C61.5173 120.905 63.8592 119.253 66.33 117.81C66.3605 117.801 66.3861 117.78 66.4011 117.752C66.4161 117.723 66.4193 117.69 66.41 117.66C66.4007 117.629 66.3797 117.604 66.3516 117.589C66.3235 117.574 66.2905 117.571 66.26 117.58C61.19 118.39 57.53 122.58 53.4 125.22C49.52 127.72 43.89 129.22 39.89 126.06C39.79 125.94 39.63 126.16 39.73 126.29Z" fill="#263238"/>
<path id="Vector_17" d="M122.29 134.19C122.61 134.19 122.74 133.71 122.41 133.63C117.29 132.36 113.25 128.52 110.77 123.95C108.527 119.784 107.233 115.174 106.98 110.45C106.749 106.897 107.274 103.335 108.52 100C108.849 98.8872 109.423 97.8622 110.2 97C110.376 96.7768 110.598 96.5937 110.85 96.4629C111.103 96.3321 111.38 96.2566 111.664 96.2414C111.948 96.2263 112.232 96.2718 112.497 96.375C112.761 96.4783 113.001 96.6368 113.2 96.84C113.747 97.6001 114.238 98.3989 114.67 99.23C115.847 100.995 117.414 102.466 119.25 103.53C121.077 104.592 123.138 105.187 125.25 105.26C127.492 105.318 129.706 104.746 131.64 103.61C131.77 103.53 131.71 103.28 131.55 103.33C128.885 104.144 126.038 104.151 123.369 103.35C120.7 102.549 118.327 100.977 116.55 98.83C115.33 97.26 114.67 94.83 112.34 94.65C110.01 94.47 108.39 96.33 107.47 98.26C105.422 102.885 104.748 108.002 105.53 113C106.76 121.81 112.06 133.72 122.29 134.19Z" fill="#263238"/>
<path id="Vector_18" d="M85.29 153.68C84.9692 154.591 84.8233 155.555 84.8601 156.52C84.8675 156.549 84.8827 156.575 84.9042 156.596C84.9257 156.616 84.9524 156.63 84.9815 156.637C85.0106 156.643 85.0408 156.641 85.0688 156.631C85.0968 156.621 85.1215 156.603 85.1401 156.58C85.6041 155.853 85.958 155.061 86.1901 154.23C86.5001 153.37 86.8201 152.51 87.1901 151.67C87.5547 150.826 87.9825 150.01 88.4701 149.23C88.6304 148.887 88.8467 148.572 89.1101 148.3L89.18 148.25L89.3401 148.41C89.4903 148.554 89.6307 148.707 89.7601 148.87C90.7754 150.265 91.8706 151.601 93.04 152.87C94.04 153.8 95.63 154.81 97.04 154.49C97.0592 154.481 97.0754 154.467 97.0868 154.449C97.0982 154.432 97.1042 154.411 97.1042 154.39C97.1042 154.369 97.0982 154.348 97.0868 154.331C97.0754 154.313 97.0592 154.299 97.04 154.29C96.2373 153.879 95.4939 153.361 94.8301 152.75C94.2112 152.109 93.6522 151.413 93.1601 150.67C92.5901 149.89 92.0801 149.06 91.4601 148.31C90.8401 147.56 90.1501 146.59 89.1601 146.59C88.1701 146.59 87.7001 147.48 87.3101 148.19C86.8354 149.038 86.4339 149.924 86.1101 150.84C85.8401 151.78 85.54 152.72 85.29 153.68Z" fill="#263238"/>
<path id="Vector_19" d="M124.68 128.8C124.718 128.812 124.76 128.81 124.797 128.794C124.834 128.778 124.864 128.75 124.882 128.714C124.9 128.678 124.905 128.636 124.895 128.597C124.886 128.558 124.863 128.524 124.83 128.5C123.601 127.463 122.464 126.322 121.43 125.09C120.446 123.807 119.531 122.471 118.69 121.09C117.016 118.711 115.582 116.172 114.41 113.51C113.805 112.217 113.491 110.807 113.49 109.38C113.68 107.38 115.69 108.84 116.56 109.59C117.528 110.538 118.564 111.414 119.66 112.21C121.837 113.611 124.422 114.241 127 114C128.24 113.779 129.434 113.35 130.53 112.73C130.78 112.62 130.6 112.28 130.35 112.36C129.369 112.6 128.358 112.695 127.35 112.64C126.521 112.655 125.691 112.605 124.87 112.49C123.162 112.223 121.537 111.57 120.12 110.58C118.42 109.37 115.3 105.31 112.92 107.27C110.86 108.96 112.45 112.89 113.28 114.81C114.654 117.724 116.329 120.486 118.28 123.05C119.88 125.25 122 127.88 124.68 128.8Z" fill="#263238"/>
<path id="Vector_20" d="M46.11 136.45C48.2895 136.884 50.5524 136.503 52.47 135.38C52.88 135.16 53.26 134.91 53.66 134.66C53.45 134.9 53.25 135.13 53.06 135.37C51.6863 137.048 50.8253 139.086 50.58 141.24C50.5793 141.269 50.5878 141.298 50.6044 141.323C50.6211 141.347 50.6449 141.365 50.6725 141.375C50.7002 141.385 50.7303 141.386 50.7586 141.378C50.7868 141.37 50.8118 141.353 50.83 141.33C51.95 139.62 53.1 137.9 54.38 136.33C55.66 134.76 57.15 133.21 58.38 131.56C58.4277 131.487 58.4532 131.401 58.4532 131.314C58.4532 131.227 58.4278 131.141 58.3801 131.068C58.3324 130.995 58.2645 130.937 58.1845 130.902C58.1046 130.867 58.0162 130.856 57.93 130.87C55.81 131.35 54.22 132.87 52.34 133.87C50.3509 134.912 48.251 135.727 46.08 136.3C46 136.3 46 136.43 46.11 136.45Z" fill="#263238"/>
<path id="Vector_21" d="M69.32 145.81C68.1827 147.928 67.1807 150.115 66.32 152.36C66.2922 152.414 66.287 152.478 66.3058 152.536C66.3246 152.594 66.3656 152.642 66.42 152.67C66.4744 152.698 66.5376 152.703 66.5957 152.684C66.6539 152.665 66.7022 152.624 66.73 152.57C68.43 150.28 69.8 147.74 71.38 145.36C72.96 142.98 74.53 140.82 76.25 138.65C78.9844 135.118 82.298 132.074 86.05 129.65C87.0117 129.036 88.014 128.488 89.05 128.01C90.1181 127.406 91.314 127.063 92.54 127.01C94.76 127.13 96.2 129.26 97.19 130.91C99.58 134.91 101.62 139.13 105.32 142.18C106.94 143.591 108.896 144.562 111 145C111.896 145.259 112.851 145.231 113.73 144.92C114 144.75 114.17 144.5 113.9 144.26C113.81 144.19 113.67 144.26 113.73 144.4C113.79 144.54 112.44 144.27 112.38 144.25L111.52 144.01C110.916 143.824 110.33 143.583 109.77 143.29C108.701 142.733 107.696 142.062 106.77 141.29C104.796 139.525 103.138 137.435 101.87 135.11C100.72 133.16 99.7 131.11 98.42 129.24C97.4236 127.552 95.9032 126.235 94.09 125.49C91.81 124.75 89.5 125.57 87.44 126.49C85.4528 127.389 83.5713 128.506 81.83 129.82C78.2785 132.514 75.2315 135.815 72.83 139.57C71.5519 141.587 70.3803 143.67 69.32 145.81Z" fill="#263238"/>
<path id="Vector_22" d="M75.05 150.27C74.3471 151.94 73.8501 153.69 73.57 155.48C73.5674 155.509 73.5747 155.538 73.5907 155.563C73.6068 155.587 73.6306 155.606 73.6584 155.615C73.6861 155.624 73.7162 155.624 73.7437 155.614C73.7712 155.604 73.7946 155.585 73.81 155.56C74.81 153.82 75.51 151.89 76.55 150.15C77.59 148.41 78.55 146.69 79.55 145.02C81.4209 142.02 83.5884 139.216 86.02 136.65C87.17 135.48 88.52 134.48 90.2 134.65C91.7757 134.969 93.1905 135.829 94.2 137.08C96.46 139.61 97.5 143.08 99.83 145.56C100.863 146.692 102.151 147.561 103.588 148.093C105.025 148.626 106.569 148.806 108.09 148.62C108.19 148.62 108.22 148.41 108.09 148.38C106.132 147.912 104.297 147.028 102.71 145.79C101.163 144.462 99.889 142.845 98.96 141.03C97.24 138.03 95.57 134.77 92.32 133.27C90.8947 132.585 89.2583 132.485 87.76 132.99C86.1983 133.671 84.8256 134.721 83.76 136.05C81.2196 138.804 79.0327 141.864 77.25 145.16C76.3962 146.809 75.661 148.517 75.05 150.27Z" fill="#263238"/>
<path id="Vector_23" d="M60.58 148.58C60.556 148.66 60.562 148.746 60.5971 148.821C60.6321 148.897 60.6936 148.957 60.77 148.99H60.9C60.9569 148.99 61.0131 148.977 61.0636 148.951C61.1141 148.925 61.1575 148.887 61.19 148.84C62.7029 146.474 64.342 144.19 66.1 142C67.9473 139.753 69.9204 137.613 72.01 135.59C75.4725 132.053 79.171 128.756 83.08 125.72C85.0089 124.251 87.1032 123.012 89.32 122.03C91.43 121.11 94.32 119.86 96.32 121.64C97.481 122.845 98.4008 124.26 99.03 125.81C99.31 126.39 99.59 126.95 99.88 127.48C101.096 129.739 102.525 131.875 104.15 133.86C105.727 135.796 107.617 137.455 109.74 138.77C111.77 140.049 114.086 140.805 116.48 140.97C116.562 140.979 116.644 140.955 116.709 140.905C116.774 140.855 116.818 140.781 116.83 140.7C116.852 140.622 116.842 140.538 116.803 140.467C116.763 140.396 116.698 140.343 116.62 140.32C109.97 137.99 105.7 132.9 103.3 129.04C102.63 127.96 102.02 126.79 101.45 125.67C100.88 124.55 100.29 123.42 99.61 122.34C98.16 119.99 96.3 118.79 94.12 118.72C91.5 118.65 88.78 119.79 86.71 120.77C84.4355 121.869 82.2864 123.21 80.3 124.77C76.2823 128.037 72.5336 131.622 69.09 135.49C65.52 139.34 62 143.6 60.58 148.58Z" fill="#263238"/>
<path id="Vector_24" d="M123 132.09C123.33 132.25 123.53 131.76 123.28 131.56C119.931 129.013 117.043 125.911 114.74 122.39C112.854 119.322 111.552 115.932 110.9 112.39C110.555 110.577 110.377 108.736 110.37 106.89C110.37 105.54 110.02 102.13 112 102.12C113.98 102.11 115.07 104.49 116.22 105.63C117.534 106.963 119.083 108.042 120.79 108.81C122.483 109.603 124.367 109.895 126.22 109.653C128.073 109.41 129.819 108.642 131.25 107.44C131.273 107.421 131.288 107.395 131.293 107.366C131.297 107.336 131.291 107.307 131.275 107.282C131.258 107.257 131.234 107.239 131.205 107.231C131.177 107.224 131.146 107.227 131.12 107.24C126.72 109.69 120.95 107.78 117.55 104.5C116.17 103.18 115.05 101.27 113.09 100.74C112.694 100.585 112.269 100.517 111.844 100.538C111.419 100.56 111.004 100.673 110.625 100.867C110.247 101.062 109.914 101.335 109.65 101.669C109.385 102.002 109.194 102.387 109.09 102.8C108.692 104.642 108.577 106.534 108.75 108.41C108.841 110.311 109.129 112.198 109.61 114.04C111.58 121.36 116.12 128.61 123 132.09Z" fill="#263238"/>
<path id="Vector_25" d="M57.76 141.47C56.9602 142.85 56.3641 144.339 55.99 145.89C55.951 146.074 55.9764 146.266 56.0619 146.433C56.1475 146.601 56.2881 146.734 56.46 146.81C56.5346 146.835 56.6118 146.852 56.69 146.86C56.8135 146.866 56.9361 146.838 57.0452 146.78C57.1542 146.722 57.2457 146.635 57.31 146.53C57.9 145.62 58.46 144.69 59.02 143.77C60.2125 141.702 61.5491 139.72 63.02 137.84C65.2109 135.192 67.5905 132.705 70.14 130.4C75.2909 126.096 80.683 122.09 86.29 118.4C94.29 113.08 99.78 110.27 101.04 110.85C101.9 111.25 101.94 112.68 101.98 113.85C101.98 114.184 101.997 114.518 102.03 114.85C102.235 116.488 102.529 118.114 102.91 119.72C103.581 122.797 104.739 125.748 106.34 128.46C107.812 130.928 109.809 133.041 112.19 134.65C113.49 135.5 116.86 137.41 119.96 136.82C120.041 136.788 120.111 136.734 120.161 136.664C120.212 136.593 120.241 136.51 120.245 136.423C120.25 136.336 120.229 136.25 120.185 136.175C120.142 136.1 120.077 136.039 120 136C119.49 135.8 119 135.62 118.49 135.44C117.418 135.076 116.372 134.638 115.36 134.13C113.899 133.341 112.553 132.355 111.36 131.2C108.935 128.758 107.111 125.787 106.03 122.52C105.023 119.336 104.352 116.054 104.03 112.73C104.021 112.021 103.852 111.324 103.535 110.69C103.218 110.056 102.762 109.502 102.2 109.07C101.02 108.3 98.9901 108.83 97.9901 109.26C92.2501 111.72 73.81 123.5 66.46 130.32C64.1736 132.493 62.1131 134.892 60.31 137.48C59.3869 138.762 58.5356 140.094 57.76 141.47Z" fill="#263238"/>
<path id="Vector_26" d="M43.16 132.06C47.01 133.73 51.57 132.06 55.08 130.32C58.59 128.58 61.48 126.23 64.77 124.32C65.62 123.84 66.47 123.39 67.35 122.98C67.79 122.78 68.24 122.59 68.69 122.42C68.92 122.33 69.19 122.16 69.43 122.24C69.67 122.32 69.72 122.24 69.53 122.43C69.34 122.62 69.41 122.6 69.34 122.68C68.2 124.1 66.41 125.12 65.04 126.3C62.2379 128.668 59.6908 131.323 57.44 134.22C55.32 136.97 53.11 140.13 52.44 143.6C52.44 143.77 52.64 143.83 52.73 143.71C54.08 141.87 55.21 139.87 56.55 138.02C57.866 136.216 59.3204 134.518 60.9 132.94C62.31 131.52 63.78 130.15 65.27 128.82C66.76 127.49 68.33 126.35 69.67 124.94C70.6 123.94 72.26 121.94 70.44 120.94C68.97 120.14 66.79 121.51 65.49 122.16C61.81 124 58.49 126.49 54.91 128.47C53.0679 129.509 51.1115 130.331 49.08 130.92C47.1428 131.416 45.1583 131.704 43.16 131.78C43 131.79 43 132 43.16 132.06Z" fill="#263238"/>
<path id="Vector_27" d="M89.08 151.56C89.0782 151.523 89.0782 151.487 89.08 151.45C89.0921 151.415 89.112 151.384 89.1381 151.358C89.1642 151.333 89.1958 151.313 89.2305 151.302C89.2653 151.29 89.3022 151.287 89.3385 151.292C89.3748 151.296 89.4095 151.31 89.44 151.33L89.52 151.38C89.87 151.51 90.1 152.02 90.23 152.32C90.36 152.62 90.56 153.07 90.73 153.43C91.06 154.15 91.35 154.89 91.73 155.6C91.7504 155.631 91.7587 155.668 91.7533 155.705C91.7478 155.742 91.729 155.775 91.7004 155.798C91.6719 155.822 91.6356 155.834 91.5986 155.833C91.5616 155.831 91.5264 155.816 91.5 155.79C90.7913 155.308 90.1861 154.689 89.72 153.97C89.5109 153.62 89.3271 153.256 89.17 152.88C89.0717 152.644 89.0078 152.394 88.98 152.14C88.9503 151.941 88.9854 151.738 89.08 151.56Z" fill="#263238"/>
<path id="Vector_28" d="M10.75 43.68H7.75V8.62H42.81V11.62H10.75V43.68Z" fill="#E58E1A"/>
<path id="Vector_29" d="M161.89 162.75H126.83V159.75H158.89V127.69H161.89V162.75Z" fill="#E58E1A"/>
<path id="Vector_30" d="M42.81 162.75H7.75V127.69H10.75V159.75H42.81V162.75Z" fill="#E58E1A"/>
<path id="Vector_31" d="M161.89 43.68H158.89V11.62H126.83V8.62H161.89V43.68Z" fill="#E58E1A"/>
<path id="Vector_32" d="M169.61 170.48H167.24V169.73H168.86V168.11H169.61V170.48Z" fill="#E58E1A"/>
<path id="Vector_33" d="M163.22 170.48H159.22V169.73H163.22V170.48ZM155.22 170.48H151.22V169.73H155.22V170.48ZM147.22 170.48H143.22V169.73H147.22V170.48ZM139.22 170.48H135.22V169.73H139.22V170.48ZM131.22 170.48H127.22V169.73H131.22V170.48ZM123.22 170.48H119.22V169.73H123.22V170.48ZM115.22 170.48H111.22V169.73H115.22V170.48ZM107.22 170.48H103.22V169.73H107.22V170.48ZM99.22 170.48H95.22V169.73H99.22V170.48ZM91.22 170.48H87.22V169.73H91.22V170.48ZM83.22 170.48H79.22V169.73H83.22V170.48ZM75.22 170.48H71.22V169.73H75.22V170.48ZM67.22 170.48H63.22V169.73H67.22V170.48ZM59.22 170.48H55.22V169.73H59.22V170.48ZM51.22 170.48H47.22V169.73H51.22V170.48ZM43.22 170.48H39.22V169.73H43.22V170.48ZM35.22 170.48H31.22V169.73H35.22V170.48ZM27.22 170.48H23.22V169.73H27.22V170.48ZM19.22 170.48H15.22V169.73H19.22V170.48ZM11.22 170.48H7.21997V169.73H11.22V170.48Z" fill="#E58E1A"/>
<path id="Vector_34" d="M2.40003 170.48H0.0300293V168.11H0.780029V169.73H2.40003V170.48Z" fill="#E58E1A"/>
<path id="Vector_35" d="M0.779999 164.08H0V160.08H0.75L0.779999 164.08ZM0.779999 156.08H0V152.08H0.75L0.779999 156.08ZM0.779999 148.08H0V144.08H0.75L0.779999 148.08ZM0.779999 140.08H0V136.08H0.75L0.779999 140.08ZM0.779999 132.08H0V128.08H0.75L0.779999 132.08ZM0.779999 124.08H0V120.08H0.75L0.779999 124.08ZM0.779999 116.08H0V112.08H0.75L0.779999 116.08ZM0.779999 108.08H0V104.08H0.75L0.779999 108.08ZM0.779999 100.08H0V96.08H0.75L0.779999 100.08ZM0.779999 92.08H0V88.08H0.75L0.779999 92.08ZM0.779999 84.08H0V80.08H0.75L0.779999 84.08ZM0.779999 76.08H0V72.08H0.75L0.779999 76.08ZM0.779999 68.08H0V64.08H0.75L0.779999 68.08ZM0.779999 60.08H0V56.08H0.75L0.779999 60.08ZM0.779999 52.08H0V48.08H0.75L0.779999 52.08ZM0.779999 44.03H0V40.03H0.75L0.779999 44.03ZM0.779999 36.03H0V32.03H0.75L0.779999 36.03ZM0.779999 28.03H0V24.03H0.75L0.779999 28.03ZM0.779999 20.03H0V16.03H0.75L0.779999 20.03ZM0.779999 12.03H0V8.03H0.75L0.779999 12.03Z" fill="#E58E1A"/>
<path id="Vector_36" d="M0.780029 3.27H0.0300293V0.899994H2.40003V1.64999H0.780029V3.27Z" fill="#E58E1A"/>
<path id="Vector_37" d="M163.22 1.64999H159.22V0.899994H163.22V1.64999ZM155.22 1.64999H151.22V0.899994H155.22V1.64999ZM147.22 1.64999H143.22V0.899994H147.22V1.64999ZM139.22 1.64999H135.22V0.899994H139.22V1.64999ZM131.22 1.64999H127.22V0.899994H131.22V1.64999ZM123.22 1.64999H119.22V0.899994H123.22V1.64999ZM115.22 1.64999H111.22V0.899994H115.22V1.64999ZM107.22 1.64999H103.22V0.899994H107.22V1.64999ZM99.22 1.64999H95.22V0.899994H99.22V1.64999ZM91.22 1.64999H87.22V0.899994H91.22V1.64999ZM83.22 1.64999H79.22V0.899994H83.22V1.64999ZM75.22 1.64999H71.22V0.899994H75.22V1.64999ZM67.22 1.64999H63.22V0.899994H67.22V1.64999ZM59.22 1.64999H55.22V0.899994H59.22V1.64999ZM51.22 1.64999H47.22V0.899994H51.22V1.64999ZM43.22 1.64999H39.22V0.899994H43.22V1.64999ZM35.22 1.64999H31.22V0.899994H35.22V1.64999ZM27.22 1.64999H23.22V0.899994H27.22V1.64999ZM19.22 1.64999H15.22V0.899994H19.22V1.64999ZM11.22 1.64999H7.21997V0.899994H11.22V1.64999Z" fill="#E58E1A"/>
<path id="Vector_38" d="M169.61 3.27H168.86V1.64999H167.24V0.899994H169.61V3.27Z" fill="#E58E1A"/>
<path id="Vector_39" d="M169.61 164.08H168.86V160.08H169.61V164.08ZM169.61 156.08H168.86V152.08H169.61V156.08ZM169.61 148.08H168.86V144.08H169.61V148.08ZM169.61 140.08H168.86V136.08H169.61V140.08ZM169.61 132.08H168.86V128.08H169.61V132.08ZM169.61 124.08H168.86V120.08H169.61V124.08ZM169.61 116.08H168.86V112.08H169.61V116.08ZM169.61 108.08H168.86V104.08H169.61V108.08ZM169.61 100.08H168.86V96.08H169.61V100.08ZM169.61 92.08H168.86V88.08H169.61V92.08ZM169.61 84.08H168.86V80.08H169.61V84.08ZM169.61 76.08H168.86V72.08H169.61V76.08ZM169.61 68.08H168.86V64.08H169.61V68.08ZM169.61 60.08H168.86V56.08H169.61V60.08ZM169.61 52.08H168.86V48.08H169.61V52.08ZM169.61 44.03H168.86V40.03H169.61V44.03ZM169.61 36.03H168.86V32.03H169.61V36.03ZM169.61 28.03H168.86V24.03H169.61V28.03ZM169.61 20.03H168.86V16.03H169.61V20.03ZM169.61 12.03H168.86V8.03H169.61V12.03Z" fill="#E58E1A"/>
</g>
</svg>
