<svg width="33" height="33" viewBox="0 0 33 33" fill="none" xmlns="http://www.w3.org/2000/svg">
<g id="help_outline 2">
<g id="Group">
<g id="Group_2">
<path id="Vector" d="M15.125 22H17.875V24.75H15.125V22ZM16.5 2.75C8.91 2.75 2.75 8.91 2.75 16.5C2.75 24.09 8.91 30.25 16.5 30.25C24.09 30.25 30.25 24.09 30.25 16.5C30.25 8.91 24.09 2.75 16.5 2.75ZM16.5 27.5C10.4363 27.5 5.5 22.5637 5.5 16.5C5.5 10.4363 10.4363 5.5 16.5 5.5C22.5637 5.5 27.5 10.4363 27.5 16.5C27.5 22.5637 22.5637 27.5 16.5 27.5ZM16.5 8.25C13.4612 8.25 11 10.7112 11 13.75H13.75C13.75 12.2375 14.9875 11 16.5 11C18.0125 11 19.25 12.2375 19.25 13.75C19.25 16.5 15.125 16.1562 15.125 20.625H17.875C17.875 17.5312 22 17.1875 22 13.75C22 10.7112 19.5388 8.25 16.5 8.25Z" fill="#212121"/>
</g>
</g>
</g>
</svg>
