<svg width="22" height="22" viewBox="0 0 22 22" fill="none" xmlns="http://www.w3.org/2000/svg">
<g id="hide icon">
<path id="Vector" fill-rule="evenodd" clip-rule="evenodd" d="M11 4.93361C6.54129 4.93361 2.73937 7.5317 1.17414 11.191C1.14297 11.2639 1.09753 11.33 1.04043 11.3855C0.983325 11.4411 0.915677 11.4851 0.841345 11.5149C0.767013 11.5447 0.687452 11.5598 0.607206 11.5593C0.52696 11.5588 0.4476 11.5427 0.373657 11.5119C0.299714 11.4812 0.232635 11.4364 0.176252 11.3802C0.119869 11.3239 0.0752852 11.2572 0.0450459 11.1839C0.0148066 11.1107 -0.000495931 11.0322 1.22541e-05 10.9531C0.000520439 10.874 0.016829 10.7958 0.0480073 10.7229C1.80665 6.61191 6.05545 3.72876 11 3.72876C15.9446 3.72876 20.1934 6.61191 21.952 10.7229C22.015 10.8701 22.016 11.036 21.955 11.1839C21.8939 11.3319 21.7757 11.4499 21.6263 11.5119C21.477 11.574 21.3088 11.5751 21.1587 11.5149C21.0085 11.4547 20.8888 11.3382 20.8259 11.191C19.2606 7.5317 15.4587 4.93361 11 4.93361Z" fill="#5B1400" fill-opacity="0.6"/>
<path id="Vector_2" fill-rule="evenodd" clip-rule="evenodd" d="M11 17.0665C6.54129 17.0665 2.73937 14.4684 1.17414 10.8091C1.14297 10.7362 1.09753 10.6701 1.04043 10.6145C0.983325 10.5589 0.915677 10.515 0.841345 10.4852C0.767013 10.4554 0.687452 10.4403 0.607206 10.4408C0.52696 10.4413 0.4476 10.4574 0.373657 10.4881C0.299714 10.5188 0.232635 10.5636 0.176252 10.6199C0.119869 10.6762 0.0752852 10.7429 0.0450459 10.8161C0.0148066 10.8894 -0.000495931 10.9678 1.22541e-05 11.0469C0.000520439 11.126 0.016829 11.2042 0.0480073 11.2771C1.80665 15.3882 6.05545 18.2713 11 18.2713C15.9446 18.2713 20.1934 15.3882 21.952 11.2771C22.015 11.1299 22.016 10.9641 21.955 10.8161C21.8939 10.6682 21.7757 10.5502 21.6263 10.4881C21.477 10.4261 21.3088 10.425 21.1587 10.4852C21.0085 10.5454 20.8888 10.6619 20.8259 10.8091C19.2606 14.4684 15.4587 17.0665 11 17.0665Z" fill="#5B1400" fill-opacity="0.6"/>
<path id="Vector_3" fill-rule="evenodd" clip-rule="evenodd" d="M10.9997 7.93723C10.5985 7.93227 10.2003 8.00782 9.82815 8.15953C9.45604 8.31123 9.11744 8.53606 8.83197 8.82097C8.54651 9.10589 8.31986 9.44523 8.16517 9.81932C8.01048 10.1934 7.93082 10.5948 7.93082 11.0002C7.93082 11.4056 8.01048 11.807 8.16517 12.1811C8.31986 12.5552 8.54651 12.8945 8.83197 13.1795C9.11744 13.4644 9.45604 13.6892 9.82815 13.8409C10.2003 13.9926 10.5985 14.0682 10.9997 14.0632C11.7973 14.0533 12.5589 13.7263 13.1194 13.1529C13.68 12.5796 13.9943 11.8061 13.9943 11.0002C13.9943 10.1943 13.68 9.42085 13.1194 8.8475C12.5589 8.27415 11.7973 7.9471 10.9997 7.93723ZM6.75562 11C6.75562 10.4369 6.86539 9.87925 7.07868 9.35899C7.29196 8.83873 7.60458 8.36601 7.99868 7.96782C8.39278 7.56963 8.86065 7.25377 9.37556 7.03827C9.89048 6.82277 10.4424 6.71185 10.9997 6.71185C11.5571 6.71185 12.1089 6.82277 12.6239 7.03827C13.1388 7.25377 13.6066 7.56963 14.0007 7.96782C14.3948 8.36601 14.7075 8.83873 14.9207 9.35899C15.134 9.87925 15.2438 10.4369 15.2438 11C15.2438 12.1373 14.7967 13.228 14.0007 14.0322C13.2048 14.8363 12.1253 15.2881 10.9997 15.2881C9.87411 15.2881 8.7946 14.8363 7.99868 14.0322C7.20276 13.228 6.75562 12.1373 6.75562 11Z" fill="#5B1400" fill-opacity="0.6"/>
<path id="Vector_4" fill-rule="evenodd" clip-rule="evenodd" d="M21.8213 0.17909C22.0596 0.417877 22.0596 0.804702 21.8213 1.04349L1.04304 21.8211C0.986278 21.8779 0.918903 21.9229 0.844758 21.9535C0.770612 21.9842 0.691147 22 0.610901 22C0.530655 22 0.451199 21.9842 0.37707 21.9534C0.30294 21.9227 0.235589 21.8777 0.178862 21.8209C0.122134 21.7642 0.0771415 21.6968 0.0464524 21.6226C0.0157632 21.5485 -2.12589e-05 21.469 2.14886e-08 21.3888C2.13018e-05 21.3085 0.0158481 21.2291 0.0465765 21.1549C0.077305 21.0808 0.122334 21.0135 0.179091 20.9567L20.9568 0.17909C21.1952 -0.0596967 21.5825 -0.0596967 21.8213 0.17909Z" fill="#5B1400" fill-opacity="0.6"/>
</g>
</svg>
