<svg width="30" height="30" viewBox="0 0 30 30" fill="none" xmlns="http://www.w3.org/2000/svg">
<g id="iconamoon:mode-dark-light">
<path id="Vector" d="M14.9999 26.25C16.5039 26.2501 17.9926 25.9486 19.378 25.3634C20.7634 24.7783 22.0174 23.9212 23.0659 22.843C24.1144 21.7648 24.9361 20.4873 25.4823 19.0861C26.0285 17.6849 26.2883 16.1883 26.2462 14.685C24.6728 15.7801 22.7834 16.3282 20.8683 16.2451C18.9532 16.162 17.1183 15.4524 15.6457 14.2251C14.1731 12.9979 13.1443 11.321 12.7173 9.45227C12.2904 7.5835 12.4889 5.62622 13.2824 3.88125C10.4802 4.31308 7.94438 5.78708 6.18229 8.00833C4.42021 10.2296 3.56183 13.0343 3.77889 15.8613C3.99594 18.6882 5.27244 21.329 7.35297 23.2552C9.4335 25.1814 12.1646 26.251 14.9999 26.25Z" stroke="#191D23" stroke-width="1.5" stroke-linecap="round" stroke-linejoin="round"/>
</g>
</svg>
