<svg width="16" height="20" viewBox="0 0 16 20" fill="none" xmlns="http://www.w3.org/2000/svg">
<path id="Icon" fill-rule="evenodd" clip-rule="evenodd" d="M8.99994 1.125C8.99994 0.572715 8.55222 0.125 7.99994 0.125C7.44765 0.125 6.99994 0.572715 6.99994 1.125V1.875H6.44252C4.21745 1.875 2.37585 3.60501 2.23695 5.82574L2.01595 9.3592C1.93169 10.7064 1.4794 12.0047 0.708343 13.1126C0.0116609 14.1136 0.631881 15.4962 1.84281 15.6415L5.24994 16.0504V17.125C5.24994 18.6438 6.48116 19.875 7.99994 19.875C9.51872 19.875 10.7499 18.6438 10.7499 17.125L10.7499 16.0504L14.1571 15.6415C15.368 15.4962 15.9882 14.1136 15.2915 13.1126C14.5205 12.0047 14.0682 10.7064 13.9839 9.3592L13.7629 5.82574C13.624 3.60501 11.7824 1.875 9.55735 1.875H8.99994V1.125ZM6.74994 17.125C6.74994 17.8154 7.30958 18.375 7.99994 18.375C8.6903 18.375 9.24994 17.8154 9.24994 17.125V16.375H6.74994V17.125Z" fill="#1A1A1A"/>
</svg>
