<svg width="19" height="18" viewBox="0 0 19 18" fill="none" xmlns="http://www.w3.org/2000/svg">
<g id="pen 1" clip-path="url(#clip0_38_716)">
<g id="Group">
<path id="Vector" d="M12.3958 2.8125L15.7708 6.1875" stroke="#212121" stroke-width="2" stroke-miterlimit="10"/>
<path id="Vector_2" d="M6.4895 15.4687L1.70825 16.875L3.1145 12.0937L13.7536 1.45462C13.8581 1.35015 13.9821 1.26728 14.1186 1.21074C14.2551 1.1542 14.4014 1.1251 14.5491 1.1251C14.6969 1.1251 14.8432 1.1542 14.9797 1.21074C15.1162 1.26728 15.2402 1.35015 15.3447 1.45462L17.1286 3.23859C17.2331 3.34306 17.316 3.46708 17.3725 3.60358C17.429 3.74007 17.4582 3.88637 17.4582 4.03411C17.4582 4.18185 17.429 4.32815 17.3725 4.46464C17.316 4.60114 17.2331 4.72516 17.1286 4.82962L6.4895 15.4687Z" stroke="#212121" stroke-width="2" stroke-miterlimit="10" stroke-linecap="square"/>
</g>
</g>
<defs>
<clipPath id="clip0_38_716">
<rect width="18" height="18" fill="white" transform="translate(0.583252)"/>
</clipPath>
</defs>
</svg>
