<svg width="17" height="16" viewBox="0 0 17 16" fill="none" xmlns="http://www.w3.org/2000/svg">
<g id="Icon">
<path id="Vector" d="M2.12485 14.6668H4.95818C5.0514 14.6673 5.14381 14.6505 5.23012 14.6173C5.31642 14.5841 5.39491 14.5352 5.4611 14.4735L13.9611 6.47345C14.0275 6.41148 14.0802 6.33774 14.1161 6.2565C14.1521 6.17526 14.1706 6.08813 14.1706 6.00012C14.1706 5.91211 14.1521 5.82497 14.1161 5.74373C14.0802 5.66249 14.0275 5.58876 13.9611 5.52678L11.1278 2.86012C11.0619 2.79763 10.9836 2.74804 10.8973 2.71419C10.8109 2.68034 10.7184 2.66292 10.6248 2.66292C10.5313 2.66292 10.4388 2.68034 10.3524 2.71419C10.2661 2.74804 10.1878 2.79763 10.1219 2.86012L1.62193 10.8601C1.55628 10.9224 1.50434 10.9963 1.46909 11.0775C1.43384 11.1587 1.41598 11.2457 1.41652 11.3335V14.0001C1.41652 14.1769 1.49114 14.3465 1.62398 14.4715C1.75682 14.5965 1.93699 14.6668 2.12485 14.6668V14.6668ZM2.83318 11.6068L10.6248 4.27345L12.4594 6.00012L4.66777 13.3335H2.83318V11.6068Z" fill="black" fill-opacity="0.7"/>
<path id="Vector_2" d="M12.5447 1.52666C12.4787 1.4645 12.4003 1.41519 12.314 1.38155C12.2277 1.34791 12.1352 1.3306 12.0418 1.3306C11.8532 1.3306 11.6723 1.40112 11.5389 1.52666C11.4055 1.65219 11.3306 1.82246 11.3306 1.99999C11.3306 2.17753 11.4055 2.34779 11.5389 2.47333L14.3722 5.13999C14.4381 5.20248 14.5164 5.25207 14.6027 5.28592C14.689 5.31977 14.7816 5.33719 14.8751 5.33719C14.9686 5.33719 15.0612 5.31977 15.1475 5.28592C15.2339 5.25207 15.3122 5.20248 15.378 5.13999C15.4444 5.07802 15.4971 5.00428 15.5331 4.92304C15.5691 4.8418 15.5876 4.75467 15.5876 4.66666C15.5876 4.57865 15.5691 4.49151 15.5331 4.41028C15.4971 4.32904 15.4444 4.2553 15.378 4.19333L12.5447 1.52666Z" fill="black"/>
</g>
</svg>
