<svg width="25" height="24" viewBox="0 0 25 24" fill="none" xmlns="http://www.w3.org/2000/svg">
<g id="Icon / Settings" clip-path="url(#clip0_38_636)">
<path id="Vector" d="M19.9368 12.98C19.9778 12.66 20.0086 12.34 20.0086 12C20.0086 11.66 19.9778 11.34 19.9368 11.02L22.1018 9.37C22.2968 9.22 22.3481 8.95 22.225 8.73L20.1728 5.27C20.0497 5.05 19.7726 4.97 19.5469 5.05L16.9919 6.05C16.4584 5.65 15.8838 5.32 15.2578 5.07L14.8679 2.42C14.8371 2.18 14.6217 2 14.3651 2H10.2608C10.0043 2 9.7888 2.18 9.75802 2.42L9.36811 5.07C8.74219 5.32 8.16758 5.66 7.63402 6.05L5.07906 5.05C4.84306 4.96 4.57628 5.05 4.45315 5.27L2.40097 8.73C2.26758 8.95 2.32915 9.22 2.5241 9.37L4.68915 11.02C4.64811 11.34 4.61732 11.67 4.61732 12C4.61732 12.33 4.64811 12.66 4.68915 12.98L2.5241 14.63C2.32915 14.78 2.27784 15.05 2.40097 15.27L4.45315 18.73C4.57628 18.95 4.85332 19.03 5.07906 18.95L7.63402 17.95C8.16758 18.35 8.74219 18.68 9.36811 18.93L9.75802 21.58C9.7888 21.82 10.0043 22 10.2608 22H14.3651C14.6217 22 14.8371 21.82 14.8679 21.58L15.2578 18.93C15.8838 18.68 16.4584 18.34 16.9919 17.95L19.5469 18.95C19.7829 19.04 20.0497 18.95 20.1728 18.73L22.225 15.27C22.3481 15.05 22.2968 14.78 22.1018 14.63L19.9368 12.98V12.98ZM12.313 15.5C10.3326 15.5 8.72167 13.93 8.72167 12C8.72167 10.07 10.3326 8.5 12.313 8.5C14.2933 8.5 15.9043 10.07 15.9043 12C15.9043 13.93 14.2933 15.5 12.313 15.5Z" fill="black" fill-opacity="0.7"/>
</g>
<defs>
<clipPath id="clip0_38_636">
<rect width="24.6261" height="24" fill="white"/>
</clipPath>
</defs>
</svg>
