<svg width="24" height="24" viewBox="0 0 24 24" fill="none" xmlns="http://www.w3.org/2000/svg">
<g id="material-symbols-light:orders-outline">
<path id="Vector" d="M4.99994 19V8.1L3.24194 4.235L4.15794 3.808L6.08494 8.05H17.9149L19.8419 3.808L20.7579 4.235L18.9999 8.1V19H4.99994ZM9.99994 12.5H13.9999C14.1419 12.5 14.2606 12.452 14.3559 12.356C14.4519 12.26 14.4999 12.141 14.4999 11.999C14.4999 11.857 14.4519 11.7383 14.3559 11.643C14.2606 11.5477 14.1419 11.5 13.9999 11.5H9.99994C9.85794 11.5 9.73928 11.548 9.64394 11.644C9.54794 11.74 9.49994 11.859 9.49994 12.001C9.49994 12.143 9.54794 12.2617 9.64394 12.357C9.73994 12.4523 9.85861 12.5 9.99994 12.5ZM5.99994 18H17.9999V9.05H5.99994V18Z" fill="black" fill-opacity="0.7"/>
</g>
</svg>
