<svg width="14" height="14" viewBox="0 0 14 14" fill="none" xmlns="http://www.w3.org/2000/svg">
<g id="trash-one">
<path id="Vector" d="M10.5 4.08337L9.98292 10.116C9.91838 10.8689 9.88611 11.2454 9.71877 11.5303C9.57141 11.7812 9.35238 11.9823 9.08984 12.1076C8.79171 12.25 8.41384 12.25 7.65811 12.25H6.34189C5.58615 12.25 5.20829 12.25 4.91016 12.1076C4.64762 11.9823 4.42859 11.7812 4.28123 11.5303C4.11389 11.2454 4.08162 10.8689 4.01708 10.116L3.5 4.08337" stroke="#242220" stroke-opacity="0.56" stroke-width="1.5" stroke-linecap="round" stroke-linejoin="round"/>
<path id="Vector_2" d="M2.625 3.79167H5.31731M5.31731 3.79167L5.54232 2.23328C5.60787 1.94925 5.84343 1.75 6.11368 1.75H7.88632C8.15657 1.75 8.39214 1.94925 8.45768 2.23328L8.68269 3.79167M5.31731 3.79167H8.68269M8.68269 3.79167H11.375" stroke="#242220" stroke-opacity="0.56" stroke-width="1.5" stroke-linecap="round" stroke-linejoin="round"/>
</g>
</svg>
