<svg width="112" height="76" viewBox="0 0 112 76" fill="none" xmlns="http://www.w3.org/2000/svg">
<path id="Vector" d="M0.369995 76H92.71C93.47 73 94.2 70.1 94.94 67.22C95.78 63.8866 96.6033 60.6566 97.41 57.53C97.58 56.83 97.77 56.13 97.95 55.44C98.56 53.03 99.15 50.68 99.74 48.44C100.09 47.04 100.44 45.67 100.74 44.32C101.04 42.97 101.44 41.58 101.74 40.26C101.83 39.91 101.92 39.55 102.01 39.26C102.1 38.97 102.2 38.49 102.29 38.12L102.64 36.75C102.77 36.27 102.89 35.8 103 35.33C103.24 34.44 103.46 33.57 103.67 32.71C104 31.45 104.31 30.21 104.62 29C104.75 28.48 104.89 27.95 105.02 27.44C105.24 26.59 105.45 25.77 105.65 24.97C105.79 24.43 105.92 23.9 106.05 23.39C106.6 21.27 107.1 19.28 107.57 17.39C107.7 16.9 107.81 16.39 107.94 15.95C108.14 15.14 108.34 14.37 108.53 13.62C108.66 13.15 108.77 12.7 108.88 12.25C109.29 10.66 109.66 9.24997 109.98 7.93997C110.07 7.59997 110.15 7.26997 110.24 6.93997L110.81 4.67996C110.88 4.41996 110.94 4.15998 111.01 3.91998C111.08 3.67998 111.14 3.40997 111.19 3.18997C111.24 2.96997 111.28 2.85997 111.31 2.71997C111.34 2.57997 111.43 2.26997 111.48 2.08997C111.495 1.99475 111.518 1.90105 111.55 1.80997L111.76 0.969971H22C22 0.969971 19 11.18 14.3 27.63C13.3 30.98 12.3 34.63 11.19 38.43C8 49.3 4.33 62.1 0.369995 76Z" fill="#37474F"/>
</svg>
